<?xml version="1.0" ?><svg data-name="Capa 1" width="32" height="32" id="Capa_1" viewBox="0 0 20 19.84" fill="#9ca3af"  xmlns="http://www.w3.org/2000/svg"><path d="M15.64,6.68a.32.32,0,0,0-.27-.14H6.17C6.08,5.63,6,4.94,6,4.92a.35.35,0,0,0-.35-.31h-1a.35.35,0,1,0,0,.69h.71c.12,1.19.53,5.26.63,6s.32,1.41,1.29,1.57a1.32,1.32,0,0,0-.56,1.06,1.33,1.33,0,0,0,2.66,0A1.32,1.32,0,0,0,9,13l1.28.1,1.27.11a1.3,1.3,0,0,0-.23.71,1.33,1.33,0,0,0,2.66,0,1.31,1.31,0,0,0-1-1.26.36.36,0,0,0-.17-.07c-.43,0-1.46-.1-2.5-.19s-2.25-.18-2.72-.2c-.65,0-.85-.24-1-1h0L14.41,11a.34.34,0,0,0,.33-.26l1-3.8A.35.35,0,0,0,15.64,6.68Zm-3,7.86a.63.63,0,0,1-.63-.63.64.64,0,0,1,.62-.64h0a.64.64,0,0,1,0,1.27ZM8,14.54a.64.64,0,1,1,.63-.63A.63.63,0,0,1,8,14.54Zm6.1-4.2-7.55.15c0-.36-.09-.8-.14-1.28H9.21a.38.38,0,0,0,.37-.38.37.37,0,0,0-.37-.37H6.36L6.24,7.24h8.68Z"/></svg>